<mxfile host="app.diagrams.net" agent="Mozilla/5.0 (Macintosh; Intel Mac OS X 10_15_7) AppleWebKit/537.36 (KHTML, like Gecko) Chrome/127.0.0.0 Safari/537.36" version="24.7.7" pages="2">
  <diagram name="figure1.2" id="65rf028zsHJXlrUuOaZE">
    <mxGraphModel dx="954" dy="612" grid="1" gridSize="10" guides="1" tooltips="1" connect="1" arrows="1" fold="1" page="1" pageScale="1" pageWidth="827" pageHeight="1169" math="0" shadow="0">
      <root>
        <mxCell id="0" />
        <mxCell id="1" parent="0" />
        <mxCell id="Lyy3Q5V-HDvfDq0tuH6o-12" value="Terraform" style="rounded=0;whiteSpace=wrap;html=1;fontStyle=1;fillColor=#dae8fc;strokeColor=#6c8ebf;" vertex="1" parent="1">
          <mxGeometry x="550" y="198" width="200" height="60" as="geometry" />
        </mxCell>
        <mxCell id="Lyy3Q5V-HDvfDq0tuH6o-3" value="&lt;span&gt;Configuration files&lt;/span&gt;" style="text;html=1;align=center;verticalAlign=middle;resizable=0;points=[];autosize=1;strokeColor=none;fillColor=none;fontStyle=1" vertex="1" parent="1">
          <mxGeometry x="360" y="258" width="120" height="30" as="geometry" />
        </mxCell>
        <mxCell id="Lyy3Q5V-HDvfDq0tuH6o-9" value="&lt;span style=&quot;font-weight: normal;&quot;&gt;main.tf&lt;/span&gt;" style="image;aspect=fixed;html=1;points=[];align=center;fontSize=12;image=img/lib/azure2/general/Files.svg;fontStyle=1" vertex="1" parent="1">
          <mxGeometry x="388" y="288" width="64" height="70" as="geometry" />
        </mxCell>
        <mxCell id="Lyy3Q5V-HDvfDq0tuH6o-10" value="" style="shape=image;verticalLabelPosition=bottom;labelBackgroundColor=default;verticalAlign=top;aspect=fixed;imageAspect=0;image=data:image/png,iVBORw0KGgoAAAANSUhEUgAAAGAAAABgCAYAAADimHc4AAAACXBIWXMAAAsTAAALEwEAmpwYAAADpElEQVR4nO2bvU8UQRiHBxNiQaKFjY2dUmh5nQWzMwfmCls7YV9icp3hT4B/gZLW0kZ2+UgMNR2lNtoZk3PHj2hCQUhgzQJ7IZf72NmPmd2d35NMBckN89zs/Nh3XsYAAACAGfhCHa2JwTMslCVIqtiX0TnJaLu//Oe+rXk4LWA4hPpFUm1sbsZ3bM/LTQHDEZ2QiJ7bnpvDAq4kXJJU7+nF70e25+iogOFj6dQX0dbb3pe7tufqpoCb4Uv1laR6ZXu+zgoYikBstSsAsbUGAhBb6yIAsbUuAhBbayAAsbUeAhBb6yGAbobmdNwDAhwT4LfkH7mlpb0nnhfuNU4ANbz+sLLycYHzYIvz4MzzwriRAqiR9Yd4Toi9Nc8LBsnCp6PZAmQz6g9C7Hc4D49vL3zLBKha1h8433/IebjDeXgxbvFbJkDVpv7Q6ezMe97uBufBv0kL314B0m79gfPdZc7Dz7MWvvUCKBVhKLamsTLrwjsjgCqOraOxEgLk1POhxNg6PlZCgMyyK4rF1mmxEgJk1keTfmzNEiuNC1jv/lgmqT7V+QyggrFVJ1YaF5DQ78TzybPVF9HfxgmQ02Orbqy0IiBltfv9QZI2fBFdNE0ATfi8qha+EgEpvvjZ8aU6hoDQjoBr4rlkS/si+oYdENoQcM3rlcFCcsj5Qp3hERSaF5DyhkePr2IfzoDYioC8sZWNgEPYcGxlEFAdWWIrg4DqmRZbGQSYYnxsZRBgltHYyiDADqtdtejL6AACagbhXRAEeHV/GVcl64brD9W9CQ2+cB68ZE2kb7D+UPbCcx6cJkX8Xu+w+X3TqwbqDyV+4y89L3iXlDVZ2/ArrD+U9K0/EeJDbe+uauFPvGhVTf2h4Ld+IETQZ2yzAbe3M0IzLlqVXX/IufjnnAfbvd7hPdY2KONFq7LqDzkW/0jK3aesrZDmRaui9QcnYqUOlOOiVZH6g1OxMgtU4KJVnvqDk7FyGmX0B+jUH1ofK3UhzUNVN7aO/lbrY6UulCNa6sTW0Z+3PlaaEEAZYuuk+gPnwUG3e7Bo7A9stQA5O7YCIwJULdtaHROgZsZWYEJAhtgKDAhIx+3PAmOAAMsQdgAEOA1hB0CA0xB2AAQ4DWEHQIDTEHYABDgNYQdAgNOsG+4PAJb7A4Dl/gBguT8AZKaa/gCgSdn9ASAnZfUHgIIU7Q8AJVCkPwCUSJ7+AFABOv0BoDKy9QeAipnVHwAMMak/AADALPAfRICX99nRASMAAAAASUVORK5CYII=;fontStyle=1" vertex="1" parent="1">
          <mxGeometry x="580" y="208.5" width="39" height="39" as="geometry" />
        </mxCell>
        <mxCell id="Lyy3Q5V-HDvfDq0tuH6o-20" value="" style="rounded=0;whiteSpace=wrap;html=1;fillColor=#dae8fc;strokeColor=#6c8ebf;" vertex="1" parent="1">
          <mxGeometry x="550" y="260" width="200" height="160" as="geometry" />
        </mxCell>
        <mxCell id="Lyy3Q5V-HDvfDq0tuH6o-22" value="AWS Provider" style="rounded=0;whiteSpace=wrap;html=1;fillColor=#f8cecc;strokeColor=#b85450;fontStyle=1" vertex="1" parent="1">
          <mxGeometry x="590" y="270" width="120" height="30" as="geometry" />
        </mxCell>
        <mxCell id="Lyy3Q5V-HDvfDq0tuH6o-23" value="Azure Provider" style="rounded=0;whiteSpace=wrap;html=1;fillColor=#f8cecc;strokeColor=#b85450;fontStyle=1" vertex="1" parent="1">
          <mxGeometry x="590" y="320" width="120" height="30" as="geometry" />
        </mxCell>
        <mxCell id="Lyy3Q5V-HDvfDq0tuH6o-24" value="Google Provider" style="rounded=0;whiteSpace=wrap;html=1;fillColor=#f8cecc;strokeColor=#b85450;fontStyle=1" vertex="1" parent="1">
          <mxGeometry x="590" y="370" width="120" height="30" as="geometry" />
        </mxCell>
        <mxCell id="Lyy3Q5V-HDvfDq0tuH6o-25" value="Deployment targets" style="rounded=1;whiteSpace=wrap;html=1;labelPosition=center;verticalLabelPosition=top;align=center;verticalAlign=bottom;fontStyle=1;fillColor=#d5e8d4;strokeColor=#82b366;" vertex="1" parent="1">
          <mxGeometry x="850" y="193" width="150" height="270" as="geometry" />
        </mxCell>
        <mxCell id="Lyy3Q5V-HDvfDq0tuH6o-26" value="" style="shape=image;verticalLabelPosition=bottom;labelBackgroundColor=default;verticalAlign=top;aspect=fixed;imageAspect=0;image=data:image/png,iVBORw0KGgoAAAANSUhEUgAAAGAAAABgCAYAAADimHc4AAAACXBIWXMAAAsTAAALEwEAmpwYAAAME0lEQVR4nO1cCZCcRRV+CTcolwgigYWd/mfjkumedQWX7HSPCaRIKYUgrFAgh4CiHAYpChGRQACFKjmisPv3bjCCSklEDhG5CuRGKShBiXIYBeXGIAQIIdezXs/sZqb//q89ZM32V/VX7c7fx+v3+p3dMwAeHh4eHh4eHh4eHh4eHh4eHh4eHh4eHh4eHh4eHh4eHhMabSVVKgp5YiDUgkDIhwMunwmEfCUQ8mUm1NPmM6H6AiGPnjp174+kjdfauc9WQanSOvi0tFc/lpcmVq58tHGM9vbqh/KOMbVT7tg4BmOzN0lq397evjErV3uYUAOMyz8yLl9nXK5iQr7DuHqR+FB/d2wgZu4EI0Fhd7lzwOWFjMt/BEJh5oer5YxLnSSIQMi/Wf3WMi6/lpW2QMiTqE/jGEyoZVN5pZh1DMbVXAftP41pPjnglZMDrl7LwQui7zbGVUdWmhoWqOaRZHMxPrqY5wsl+Unn+FzdY7dnQv41M31cPRkz77xMA/T0bMCEWuqg+VK7aYuobu2iNwcf3g3K3SLr2qCtY/rHR8T4RqZy+cJu02buEGGgkGe5+6SrLWmWvfvXLVb+Lssai2W1h5PesprV2G7Hzs7NydSMnBfypMwCaC2rIGagNxiXdzIhf8i4Oi8Q8lwm5A+YkL8NuPxPrBCEvCYigHK3iGl7eBp9hZLaP2m3kZ1OG4MJ9S2H8N60+9JaYxj6XsDVjYYPXH2jwKtHBEJ91Zg1Lq9lXL1kreuU7ALo7N6l0YwwIecXRPUzpLZxfaZ0dW1GkxjColqwqk1Ud7X7BFw9HxWAGkijL+DyokStK1W7UscQ6ra0jUKBAeNqpYPGu8h5p81R6FB7MS77KVixNSsNk4pcnRqUpKK/83SkHexiCo1ntw24vMKxC59NmyPg6sFkmytPS+rf2dm5EUUt0X6VQ5vWUlJzXFaAIjgYz3A5SCbkr+x2BV6d7WIgRV9xY7e0VDcNhFxhadgjzf+rG5LoK4pKt2NXv28z1rVBGJfXw3hHINT3HQt8ym7H2OxNmJBvRwTAq0fEjl1S0hp3aS3mbhrj1STNdQYAXN0eacfloqgAkoU7LhBjhl51tuXyeoeDuzJu7IDLb1ttf+0KGtpK09sSxrg7wtiyOsFBm3atY9ybIJdpIWfmastE9csObVkSNzbj6jdW29Ppc8rILVNxbIIJswOFtS6z59CswefmXUqVbWC8gpUrVQfRa1xtW/le29M7uz1FYo7mk+3kqVCW053mgssfu+YrCDXDQdujrrbEZKezrm2oFymwyFJ2GTUUOqqMlSoHU8nAxNG8cjIrq8MKXO5bLwFMzisAQsDlQw6bfCRYaOXVaVab5YNxO8XilmY8bfc37YSa53Cs34UY0LsYLRg0gSsowCCzSxkzjDZYqTqFnKqdWDh3hVDLmJD3BULelEsAJXVmVADRHUyCtwRwz7p3qsM2K6RdkTGEvN+eqzitwhNDVi7vTFt7ff3vB0LeWizJ40bDT0xivPp1U8fIMHmGZ01SpTWILubvdrtAyKstM3De0Mueng0ok7UE9IXG/pzP2qLGpOR5bFCVlbLb/AVJFQ67IkrZ7ygxPlUABFfFddeOGS3QAGJW43syfY3vafc1M1de3Pie2jtMyGWQEUVROYAJ9UROQbxV5PKQrHPUF1r5ZqyaGUbJXjoboHjdRApcnsa4PJ8J9QuK9wMuV+cWgHDUXMryqHXMnbmTZaJWsz333DLJlDGhft/0nssL7TnIKedijhmn8mkSXI4y/ZrMQqAaB9lyx05ZQbYtS2miraP6qdwCKKtZUWGrhYPvC0J90Xr/WIQxJams/iupmjk0B1d/sAS0tFqtbpiJMXF0G99jipJ/StYE+WaW+pHbIaZkp26i8gmgvb19Y1JXW9viTCL9n6VMMbjDySlGzjfiD1+GhUDIPet+ylkqb/JZCYM8HFMgy1yUyxuGDiIQ6pd2v8EqKu34psWUqz3gQDTKkWeZz3llvwhDSpWDYQwQlNVnnVVUrh5P7cy4/Lej409yEcDVkcMSAHf1k0e3tU3/sO1X4s6Qo3UoeWt97Etsk0rjwhjBfY4gVyT3olDOoT40WL7J1YBLBdOyxmJndTub0ST8iH9IKFnT7rNtrzl+tE616BAJxhCkXQ5LsjrpTKW2AK6WOzpem3ViilbcTlwhFc1SCefqAcsPPBcIeU6WMsPQ+a1V2iiWKntHyx3yeBhD1E/ILEsiX0jt6LitQMS+knZdY8jROTLNhufAYR4VPmtpxTGJY3D1ePNuV3dZY66lc28YQzAub3FYknSto1Kwk3lcXpTcr1pOC8UoT0glvFxpTxrDmLKUqyeMqx+l0NGUH8SuiavFlHjRyRiZxyx9TMHQnJc75m7Ia2JR5HJmAvHX0Xu65UB1FqqhBKL6FarJN/kOsuOOEgaFgUmnXclauE4bIQWU9CQKsaTOTBuj7g8btW4lE+peOnRnXB5ElwqKXO7W3t61Ldt9RoHCXcblGXS1xr2B1eIsVqTGAK5uT9uFsbuLq5WUNDGuzo5h4Dmp8wt5WdImGOm1moLo3j0DGybHZPT5eSLkO3QNBrKCdnfu23CDE4nKAYYJFDpahyR1LUi9/VasOU33HCU1J8saYrUow6F/XEAwPOarZZQXQV7UShJUWs44GZd32LbZmLPBXcTVa5kTnx5za22JS7tc11uczBPy4mGbnzqMeeHq8rhDmfRH3pTF5CZhUqEsP09HcHaZwBTDhFpCJVe6/5J0iYoONegibZ6Jd+2Y0UIFP4qKzFNSc7Lc9xkE1YCodjXU3zyVL1F9H3KidjWxcigT8ipzETneNK0xgQhXl1AwAaMJKlqR8w061CdMCJeWUKzHmNLVtZkJQMwNDfk5c8xZ7hbj/rDew8PDw8PDw2NMgFfAzqihBzVcgBpuQA33ooY/Ywh/wRAeRQ13owaNGk5CDYWxoWKCARfC1qhhDmp4CENYixow01NrOw8whLswhJtQg/O7XB5u4FzYEDWcgBpez8z06PMqCeDa+j9rUMM12AutMXN6NABDuC1hdy9DDW+ghjdTBLAcUMNGqKGvofP7qGE+Xgm5SgcTDRjCKajhdNRwGGqoYB8EqGE70oymdvNhExwAjiF8DzWssgS1rrRedwyrLCleTI7lg1jg+ggM4WeWAB5pbtAHs+qq06gmK1HDItSQvZ7t4UQ9Omrk7YJoo15oQw1PxXjtWzGE2bgIJmwhLg3YB+2o4UJjPRZC03X1JlNPTx84v0RCDTfHEK6IDatC+BeGcD4OAEulaAIAiV/9cDRqeMDi1Xesdvdb75NzAeyHfVHDC4mxbAj31SefUKVYXAQboIZ9UMOAM9qpBTPTh9ovhE0xhPdi7X/sRL2wjQlP02Na8hV3YAgnrq+OGyn274eZxpSE8FrCxnzCzqvq/rWxzan5JtdwEIbwXI4s7zHUcDb2QTcugtSfDhivwAXQghqOxxCuRw1vpW7CEM51rbdeglgXYfZC/i/5GTXScEYGQiIJR70ucp4xawtgzO5kjgSIMKnuRI/DEBaihmdyrPEx7IWOWM1p1JgQLhoZoQOwA4YQYgircwpikIDVpkClTXh7ttEuir6sJGbMHaeGPVDDMajhUgzhTgxh6TDWs8QkY3NrX1B0ztVofmiOAdhhdBbRC9MwhOuGLQgdeVaghsXGl2i4ysTNIZyM/XAghrAX9kOZSiWm6ki+6WrYYoiWuTDZfEZPP0wx2SfZ6xAOMX6pFoP/3BTNNLw0YlpDeMUkrxnMa30ttX59EPn252gIotWULzS8PUqCwHH7hPC02RSXQ6afR8P5sCVqeLfef2x/5qA+GZVm/7meMX2tMVFU68+ZhBoHXhvjwUaNHVPUC3wHmMihFg/j/+mzGEOYO5KEE0O40pT850PTFwr/Z8AB2JZSbgzh5qZEZPw+z5gsX0MJ1jeQCqKG/Y2/COHJccBsel42zpk2yUQ7C8Fe2B77YT+TH2i4PbHsMRoPhYC1E8BLUMNRFPN/0DwYd0ANW2E/dGE/HF5P+npRw42m5kRaE8KL9ZL5G8a/UFZZi9+XNBx+31LPPCnHOApD2Bs1uH59xcPDw8PDw8PDw8PDw8PDw8PDw8PDw8PDA8Ya/wXC08WgXWClZgAAAABJRU5ErkJggg==;" vertex="1" parent="1">
          <mxGeometry x="901" y="243" width="48" height="48" as="geometry" />
        </mxCell>
        <mxCell id="Lyy3Q5V-HDvfDq0tuH6o-27" value="" style="shape=image;verticalLabelPosition=bottom;labelBackgroundColor=default;verticalAlign=top;aspect=fixed;imageAspect=0;image=data:image/png,iVBORw0KGgoAAAANSUhEUgAAAGAAAABgCAYAAADimHc4AAAACXBIWXMAAAsTAAALEwEAmpwYAAAOf0lEQVR4nO2beVgTZx7HX62SkGQmQVt77W53u92KeJWCivbQCgJyi6J4IAKC1LZa22qwWtF6KwpyXwoqWkTlCCIIKNYDjx7bCm133bYIKoiAitptt1Z/+8xMkpmERALvoBzzfZ7P439k/H7m/U4IgJAQIUKECBEiRIgQIUKECBEiRIgQIY8qY8P7yCeuXyl3XFNt4bjqwYDpUTA44TS8/sVd/jjP4dztB6+du33ptXO3P/HJgid6vGiFy6YUi4kbQOG0FhQTVoHc/hMgxy6BQVHF/JV+/i68du6OLmfvwJizd5J6tID+ThsHWkyMuG8xcSMonNaBwnE1KBzCQT4uDPo5LYMx5bewijdUug7lt++POdU8EPXUWLhGrLJwjQAL181g4bwBFI5rQeGwEuTjlwP5xgcwbMeZdtztrZR+RsNtGHPmNow+3bwS9dQoXCO+t3DdAjQuG0HhzJwCuf0KIMcq4S/vJvNzt2tLv0OXPqacZXT57X+hnhiFe9QwhdtWULhtAQUtYDMonDXPgpUgf2spKOyVMKb8hvHS23K3l+txmsWu/M5Q1NMid926hhGgYQsoXDaCnHoWTPiUOQVvLoahKeUPn5hzD58YY6XTnKJoBrtTzatRT4vCfetFhXskKNw0bAWF62aQT9wAcqe1QE5YCeQ4Jfz5nSTTHqhGJqZF8afY4kdTnGwGuxPNP6KeFLnHNmuFexQwRDJQEly3gHziJpA7rwP5hE+BHL8c5PZKsDvRZNID1ZS7XVO6DieaYfTxm9aop0Tuvm09KyCKg/oUOG8AueMaIB3CgRi7GIYknsIv/ZSB0rkcv7kO9ZQoPLb9R+GxDbRwJVCnwIU6BWuBdPwUyHFL4U+hiVgTY7T4z2/R2FEcv/UTAuiFuntIt6gRco9ooFBwJWhw2wpyF84poL4zdlDCqOONeBNjvHgtI8pu2aLuHtIzZpPcMwbkntEMLWRE0e+I6FNAP4xXATFOCVZxJ4zc7SZODLd0veLtyhhGHbu1CXXvQC/SI6aKEcBFTwZ1Cuh3ROuBdFoN5Phl8HxIQtvv9oeVzineruwm2B27CXZHb9Z06xkiJsXbyb1igcaTQl+EWoZ7FJD0OyLq+wLqYbwC5PZLwa70etvvdqOls8WP0nCU+rd5FOquIb3itsq94hgBXDxjDUiIBNJ1M5DO64FwXA3EW0thUPRxrIkxWLqmeDUjS29sQd0z0Iv0iquWT6IEcIk1LIM6BW5bgHTZCKTzWiDsl8NzwQl4E2OkdJpSihswquTG5W45QzLvhNfISfEg1yHOuAzPaCDdIoF02QSk8zogqO+M7ZfBqOJ6vIlpUbq6+NIbMLKEwfZo0xjU3UJ6J2wjJyUAQzy0LiMG5B7sKSCc1oBs/MdgGXkMa2L0Sx+lLl1L8Q0YcaQpCnWrhIf3JiclXiG9E0CLURlxrAyPaCDpZ4H6FDisgGeD4vEmxkjpOhxpqkXh0Bt1l8i8E98kvRNBF8MydE6FF+dZMHEDEI6fAuGwDEYcrsWaGMOl08WzFN54A3WXEN5JseTkJGDQF5H4EBlxzLNAfQoI57Ugs18OAzeXYk2MsdJHFHEobIpB3WZ+JifXkpOT1QK4JLYuwzMWCPpZEMGcggkr4ZnAONyJYSlqUTyNbWFTXbf4rQmpT/J4ckoy0EzmYqKMSXFAekYD4R4JhMtmkDmtBsJhOdjmX8WaGEOlazncSGNT2DAOdfUQU1ISiCkpoKHtMhKA9GJOAeEWAYTLBpDZr4CXN5bgTUyR4dI12BY0gu2hxnjUpeOT9QThk1pP+KRqBbAi2iDDKw4I+hRsBcJlE8gcV8HTc2KxJobBQOlc8huvjy2DPqirhvRJmUD4bAdaAJe2yvBWnwL3KCBcN4OMehhP+ARezanBmhi6dP3iD3FpoP51QF01hE9qCiNAQ2o7ZSTSzwLtKXDdCDKHFfDSuiN4E2Ow+AawzWexUTV00d+eGxveh5i64zoxdQcwcEW0Q4Z3IhD0KYhkToHTahjgH4s3MTp3Oqd0pniGvIYGmyToi7paSN80Z2Jqmrp8fdohY3ISewrctoBs4npqhhptC5uuYU1MvpHimfLBJu86vJpT74S6WqTT0nbIpqUBoQFbRjIQ3gkgo98RUadgE0gdV6aNKGyMw5oY/dI5xdPk0gK2oy6VkKS+0mnpTbJp6cCQBrzImJIMsklxIPPcBjK3CJBMWOdIvVfHmhhDpauLp8unyK6/aZUFZqirhPBNc5X57gQarQQeZExJUZ+CGJC5ba2n3uZSH5rZFjRebf/ENBgunb7zWWwOXHdBXSUy3507tQK4YMtIBWJyEn0KpB5R2m+SbAsaonEmRqf4HD2y62msD15LR10izttE0uk7b8mm7wKZrwa+ZGwHwicFZNQp8I58U/OSNqr617EmxkjpWg7WwysHrzWPTasSo84ewne3h2z6bmDYxWJURnrbZFAnYXLSFepDPu2LAvSyzb9ejTMxhkqnsNZwgKLOHXX2SGbszmAFcOFPhmxySqT+69qoGiJxJsZ46RquwStZdbtRp45/mlgyPaNZOiMDNHSIDJ/U0fovba1qGo0zMcZKt97PIavutl1WjTnqrJHNyPCWztgDLKwI3mRMTa+hfsOixYsD9LLJvX4Jb2IMlE4XT939DMMzr3mhzhrJzD2Z0pl7QTpzD0MHyJD6phv99UHr3PoInIkxVjrNPobhmbV7UadMiEoimbnnDiOAC78yzKfuGGHsEmyyG0diTYx+8erSX9lXx5BJUXt32K46Kepskfll+khnfQY0Myn0ReDLkPru/Nng/HBiffDajzgTwxbPLZ3DZ3UwdG/tFNTZIpmVuV86KxMY1CLaJCOjVRlS313rW7uOVw9c24AzMQaL/6wOhnMYtqd2H+p08+O3767ELxMkWgl6IniQIfHd2eqfEb2a1WCDNzEs3NKH76WopRm2p/YXq6x6GeosEc/K9JX47QNd+JUhmbHb5D+ks86qu4gzMbrF17LsYRmWcWUa6iyR+GVlS2ZngcSPQl8EXzIy1ph6PdZZdWtxJoZ7t7csnmFoxtUDqDOkf2AuIZm9/7+0AC4myDD3zwZR8GGT6P3+2Y9Q2Hc+LVhyYSpa/NU0tOi8L1pwcgYKLfbrt+zUCpyJ0S+dWzzN7qsUv47c3Ug+7v6R1D9rpmT2ftBFX0RLGeKAHEDKC4DCKvGgvsZHXwFadBbQgpOA5pcACjwIlqkXsSamRekZdOksu67C0J1XZzzu/pHEf3+exP8AaDFRhiikCL98DYv/CejDLwC9fxrQu2WAglXwzMrjWBOjd7frFK9hSPqV3Mfb/szdpPnsg7+a+x9kBZgqY/Z+6P3hl/wIWPItIOprvX8G0HufAwotBPG7KtyJMVj6UObOV3PlN5ukn+SPrX/xnGx/8zkHQYs/g8ky5hyAJxad42+GPjjHmaFsGJj0b6yJMVI6QzrD4LTLfo9PgH92gfmcbGAxRYa+iAPwxMLyDpmhp1ccw5oYtvSrOqVrSaO4nP9Yypf75yjMA3L+Zx6QwxFgQIa/CTL890OfBafxZ4g6BZwZEr2dhzsxRkpnGJJ2BQbvuPK7VUpNv0cuQDQnN9A8IBdoAVwwZPR57wQ/M7SQnaGX43/AmhhDpQ/ZQXFZy9DU6jmPXIA4MLfIPJASwAVfRt93ynicoXwYsOwo5sQYLn3IdpbBqTWHH2n5hF92f3FA3u/mgXnAkAt8yjCbf5S/GZqvwpoYneK365HKYJV6+XfLnVf6PzIBosD8YHGgCsSBeVr4ltHn7aNVSFl5r80ztPhrzgyV0jP0j9jvsSbGUOmDNaTUMCTXBD0yAeIgVYk4SAVaOkCG2P9AGFr6nRcKq/gNd4aeWnoUa2JaFK8pnS0frJJrjjyS8mUhqifFgap74qB8YDFRxsNEBOjKEAXlvUS/4NLv7JGy4k6bZ4j6aEI9Q2ahuUzZ7ZyYFne7unQuVknV94bF/zigwwWI5qpCxXMPAQNXgp4IDBnigJzzOi+6pHIkCqtowpmhl6Iq8SbGUPFJDFY01WCVUD2vwwWI5xYcYwVw4U+GeE7ORy1eeOn3Q1BYxVXTTsE3LWboybBSrInRL15beiKHhOrSDi1fMv/QM+Lggj/EwQUgnquBbxk5D0T+OX81eAFhF15EYZU/tWmGFpwAFFoEfUPzmJLbOTFs6QaLZ4i/9MeQlJ+e7jABouCCd9nP6AuAFsGzDHFA7pmHXsTH3z+LlBUVbZ6hoBz4+5YLeBOTaKR4uvxqGBRfDZZxVfM7TIBZcOHnopBCAz8w4U+GeUDuolYvZFFlP6SsONvmGVpSjDcx+qVri7/EEHcJBsVeOt4h5UtCCp8VhRT+QQvg0l4ZQYZk5D0Qh6j+YtIFhVfKkLKitNWPJrgzFJLLFNzeidG723WK1xBbdX9gTPVzvAswm1e4kPohCoueCB5kiALzT7Xpot67KELKihzDEioMztDfNn2LNTEGS2fufC1WMZfe6wABR06L5h0B0bwihofKONwuGWZBqgVtvrDwsj5IWZFu0gyFHIL+i4vxJsZI6RSWMVUM0VUn+W1/YZlCFHLkPiOAC48ygg7dN5+X/3z7LhB6obDKKFNmSPS2CnNi9EvnFM+UD5bRP99/kc+flJmFFFmahRYDhYiihQh8GaLgghPYFxpWqXzoDL1zFHqH5GFPzCCDpevycnSVJeItIV/2NQst+cUstISW0DEyCvn5LlJZsRCFVTxoOUPl9AxJPijDnxgjpWsYGP3z3bHUNPIZs9DiDxkBXHiSMffwBeSTxd+fgSorZms/SeXMUK8FJ+GFzT/wMDGt0vpb6fakb2hJoNnbJd+YhRbf40OGWUjRdbPgwlRZwOGneL9YZeXrSFlxAikrfum15GuQfPw1vBBxkbeJaXnXV92zjK76dmBMVQDv/xchQoQIESJEiBAhQoQIESJEiBAhqDvk/wahm6+f7o59AAAAAElFTkSuQmCC;" vertex="1" parent="1">
          <mxGeometry x="901" y="311" width="48" height="48" as="geometry" />
        </mxCell>
        <mxCell id="Lyy3Q5V-HDvfDq0tuH6o-28" value="" style="shape=image;verticalLabelPosition=bottom;labelBackgroundColor=default;verticalAlign=top;aspect=fixed;imageAspect=0;image=data:image/png,iVBORw0KGgoAAAANSUhEUgAAAGAAAABgCAYAAADimHc4AAAACXBIWXMAAAsTAAALEwEAmpwYAAAHVklEQVR4nO2cf4wU5RnHH+F2ZrGCYu+4meOAs9H+YVJjY1Jrbmav0NrEsIVWK2Iwh3/Ys0SpAjezHLVcbQjahFSsTe0PlZoaS48/7gqKDde6M3uI6G2Ed3Y1SsS21LYCoSmUViw9v80Me2flRJh3ZnZmjveTPP/d3jz7/b7v8z7zzNwRCQQCgUAgEAgEAoFAIBAIBAKBQCBwQQe1Ikc3QqceaLQJOg1Co13QidViNzTaAZ0e937G/dkOUrwPC/wDoknQaR40+gk02gedwBXuZzX6EXKku79TeHE24TVqgk73Q6c/cYt+ZjMOQKfV0Gi6MOJ04a+jGdDoIWh0PHThxxtxHBo9gM/RtPPeCLilRqNl0OnvkQs/Pg5BpztAdMF5aQTaaTY0eiEG4U/fEb/F52kmnU8gRwug05HYxf/AhMPI0Vw6H4BG34JOI7GLro+L/5TnX72UJjLQaV0ChMZHxTvzGofbusv/bi6wu2giAo3Wxi0yzhAH5zWW21YNv6uaDlSTva8U9i6jiQR0ujO5K79p+APxa2GwEdVwltBEABpd69bX5K9850OhGOzdmd3OVZRm3LtO6PTHtImvju0Ep6r2li+ktAKNfh2iaCPe0E2n70OnJcjRddDoKuTos2inG9BOndDpYWj02tnLTuP4snPGYI9SGoFOXw5J+EO1A3zWOV+7g9qg0QbodCyY+LXorrRTmsA1lAk0xdS9eA8arcf19AnuPDroEuj0g9H7Di7xvfPAGaI0AZ1uDyj+m9DomtDyaacvvHX9rOd4xB+N5oIzn1I0y389gPjD7lg67Lxm9DjNquGUeQ1QDLaXCMkf3EGj/DhR5xLQOQn49mTgoQZgUwZ4WgI2S8BTGeCxDLChAVgz+QA2y19CH02OIrfphfLFisn2cO8Co5L8eRF02uKJ3kFA1yTg0QzwexmwfYQlHYItPYFSNvTDr2VlZZZiOof5doHzK0p835+jE1gxGeiX/IlunzFehi2FWn9bDLaAcxccT/R9AXoa1nhlJRzhcVo8iyH5U2HlqhjOAJcJSRxRAHQBLOkeFOWRiMTHqdIkH0MpsziMnJVV1Su9mY9/A06qBvsu9SIZD/mxnWRY8pZIhbfHxbowcldN5znurshkm6mrnKE4QZGysKXBOouP2kH9iLvzguSvGuxWXgNqh/LWy5fvkykO3FYRltwfi/j2WNwf5DvMXu1M5ypDH46+WO4P3DIQs/iAJb9/8vmpgTok1XQqAQ1wb9Luo3qCkvxFWBEfuPbZY6Q0ZcfBasdFQb6Lajhbghrg7aLCXo3qeOi+Hrv41pTfBRXfRTHYI4EN8IK9emVvVaKogS31TISVP4pish+GY4B3KK+iKEGZLjw1Jkj/yo/CANVkf5vT+4csRQVs+ZuBBDx1bjyLorwMpWwHipmrYWdzsKV7YUk767nyR2nqriqqwXTVcLpUk20L3hWxb1BUwJZe5DdAGkIp87EPueGaYslv1Ev8j2JGgX1GMZ0S/4Hs2JEkhqHsbP6VL/0CZTqnu0bspmmwJDsO8cfoKmdU09nE2xG5uyr0nGBnl3Ku/EEUqcHXtXbSVNjyvljEH6W32KCYziDXYdy9tzP0fGBLP+Uw4ASKchvX9UrZjtjEr9Fc2NOmmOyEbwNMZ2PoyZxeFs6x9Pw80DWrN0ffV58FxWCPJeIcgC29zWHADZRymgvOfA4D9oeeiDeL92vAziktlHJmmqzVfwliR0JPBLb8X98GVCn2EhIUd9zMsQNOUtjAko/6NmAo/X+R2LjmNZWjFf1n6InAkg7474KyOUo5zUZlLkcX9JfQE4El7eZoQzdQylFMZ6NvAwz2QuiJwJZ+5r8Lko9gF11KKUXpeaVJNdlRDgOeCD0Zb4DGdyf8JKUUxWRPcd0Jm86doScDW76MzwDPhO9QylAMZy2P+G7MNF65IpKkYMmM2wRL+iUGp36SUlB2FM6VX2tBnciSgyWt5N8FMt4utry0+Jm7t3Zuv++2OwbXf7qvry+Sl3B90YtJbqvpdjunDlz/Nf//o9lgRmS51qaU/+AR/7DVVLlpYOHJfP9XEWaoAcSKII6rK8uNkRngmWDJ6/2Kf6jY5EQhfj5hBiim82Ck4nsGFOkiP4O5qFZ+PmkGGOydOffsuSRyAzwTStLX4175+YQZ0GJUbqmL+GMm2NKP41z5+QQZoJhOoOceQV7MLcW18vMJMcAdO7Su2DWl7gaMPUC35eE4Vn4+GQZUWldU4x21uCNn2NLz9V75+bgNMJyXIm85zxX3lZP9xTkb6y1+PiYD3JofW9n5OG7fsfbmhQNLDk5YAwz212bTWURJpmvwwYsXP3Pvkwv6F/1r4hjAjikGe+DS5fvS868ul29/eNpt2wrrbhzo/HNqDTAcRzEr3bEftEG5ddv3rujcvrqwaOvdO772m6X7Fw7ccvQr/Te9lxwD2DG3vLgtpWKyx90XdVtXVy+PWzeBQCAQCAQCgUAgEAgEAoFAIBAIBAKBQCAQUKr5H5iNAQ11uV5wAAAAAElFTkSuQmCC;" vertex="1" parent="1">
          <mxGeometry x="901" y="388.5" width="48" height="48" as="geometry" />
        </mxCell>
        <mxCell id="Lyy3Q5V-HDvfDq0tuH6o-29" style="rounded=0;orthogonalLoop=1;jettySize=auto;html=1;entryX=0;entryY=0.5;entryDx=0;entryDy=0;dashed=1;" edge="1" parent="1" source="Lyy3Q5V-HDvfDq0tuH6o-22" target="Lyy3Q5V-HDvfDq0tuH6o-26">
          <mxGeometry relative="1" as="geometry" />
        </mxCell>
        <mxCell id="Lyy3Q5V-HDvfDq0tuH6o-32" value="API calls" style="edgeLabel;html=1;align=center;verticalAlign=middle;resizable=0;points=[];" vertex="1" connectable="0" parent="Lyy3Q5V-HDvfDq0tuH6o-29">
          <mxGeometry x="-0.1102" relative="1" as="geometry">
            <mxPoint x="5" y="-8" as="offset" />
          </mxGeometry>
        </mxCell>
        <mxCell id="Lyy3Q5V-HDvfDq0tuH6o-30" style="rounded=0;orthogonalLoop=1;jettySize=auto;html=1;dashed=1;" edge="1" parent="1" source="Lyy3Q5V-HDvfDq0tuH6o-23" target="Lyy3Q5V-HDvfDq0tuH6o-27">
          <mxGeometry relative="1" as="geometry" />
        </mxCell>
        <mxCell id="Lyy3Q5V-HDvfDq0tuH6o-31" style="rounded=0;orthogonalLoop=1;jettySize=auto;html=1;dashed=1;" edge="1" parent="1" source="Lyy3Q5V-HDvfDq0tuH6o-24" target="Lyy3Q5V-HDvfDq0tuH6o-28">
          <mxGeometry relative="1" as="geometry" />
        </mxCell>
        <mxCell id="Lyy3Q5V-HDvfDq0tuH6o-33" style="edgeStyle=orthogonalEdgeStyle;rounded=0;orthogonalLoop=1;jettySize=auto;html=1;entryX=0.015;entryY=0.388;entryDx=0;entryDy=0;entryPerimeter=0;" edge="1" parent="1" source="Lyy3Q5V-HDvfDq0tuH6o-9" target="Lyy3Q5V-HDvfDq0tuH6o-20">
          <mxGeometry relative="1" as="geometry" />
        </mxCell>
      </root>
    </mxGraphModel>
  </diagram>
  <diagram id="cVdpf2dm9ekthTffuEa-" name="figure1.3">
    <mxGraphModel dx="1590" dy="1020" grid="1" gridSize="10" guides="1" tooltips="1" connect="1" arrows="1" fold="1" page="1" pageScale="1" pageWidth="827" pageHeight="1169" math="0" shadow="0">
      <root>
        <mxCell id="0" />
        <mxCell id="1" parent="0" />
        <mxCell id="DuDixeBLV8APTmDYksAF-1" value="Terraform" style="rounded=0;whiteSpace=wrap;html=1;fontStyle=1;fillColor=#dae8fc;strokeColor=#6c8ebf;" vertex="1" parent="1">
          <mxGeometry x="550" y="150" width="200" height="60" as="geometry" />
        </mxCell>
        <mxCell id="DuDixeBLV8APTmDYksAF-3" value="&lt;span style=&quot;&quot;&gt;main.tf&lt;/span&gt;" style="image;aspect=fixed;html=1;points=[];align=center;fontSize=12;image=img/lib/azure2/general/Files.svg;fontStyle=1" vertex="1" parent="1">
          <mxGeometry x="388" y="186.5" width="64" height="70" as="geometry" />
        </mxCell>
        <mxCell id="DuDixeBLV8APTmDYksAF-4" value="" style="shape=image;verticalLabelPosition=bottom;labelBackgroundColor=default;verticalAlign=top;aspect=fixed;imageAspect=0;image=data:image/png,iVBORw0KGgoAAAANSUhEUgAAAGAAAABgCAYAAADimHc4AAAACXBIWXMAAAsTAAALEwEAmpwYAAADpElEQVR4nO2bvU8UQRiHBxNiQaKFjY2dUmh5nQWzMwfmCls7YV9icp3hT4B/gZLW0kZ2+UgMNR2lNtoZk3PHj2hCQUhgzQJ7IZf72NmPmd2d35NMBckN89zs/Nh3XsYAAACAGfhCHa2JwTMslCVIqtiX0TnJaLu//Oe+rXk4LWA4hPpFUm1sbsZ3bM/LTQHDEZ2QiJ7bnpvDAq4kXJJU7+nF70e25+iogOFj6dQX0dbb3pe7tufqpoCb4Uv1laR6ZXu+zgoYikBstSsAsbUGAhBb6yIAsbUuAhBbayAAsbUeAhBb6yGAbobmdNwDAhwT4LfkH7mlpb0nnhfuNU4ANbz+sLLycYHzYIvz4MzzwriRAqiR9Yd4Toi9Nc8LBsnCp6PZAmQz6g9C7Hc4D49vL3zLBKha1h8433/IebjDeXgxbvFbJkDVpv7Q6ezMe97uBufBv0kL314B0m79gfPdZc7Dz7MWvvUCKBVhKLamsTLrwjsjgCqOraOxEgLk1POhxNg6PlZCgMyyK4rF1mmxEgJk1keTfmzNEiuNC1jv/lgmqT7V+QyggrFVJ1YaF5DQ78TzybPVF9HfxgmQ02Orbqy0IiBltfv9QZI2fBFdNE0ATfi8qha+EgEpvvjZ8aU6hoDQjoBr4rlkS/si+oYdENoQcM3rlcFCcsj5Qp3hERSaF5DyhkePr2IfzoDYioC8sZWNgEPYcGxlEFAdWWIrg4DqmRZbGQSYYnxsZRBgltHYyiDADqtdtejL6AACagbhXRAEeHV/GVcl64brD9W9CQ2+cB68ZE2kb7D+UPbCcx6cJkX8Xu+w+X3TqwbqDyV+4y89L3iXlDVZ2/ArrD+U9K0/EeJDbe+uauFPvGhVTf2h4Ld+IETQZ2yzAbe3M0IzLlqVXX/IufjnnAfbvd7hPdY2KONFq7LqDzkW/0jK3aesrZDmRaui9QcnYqUOlOOiVZH6g1OxMgtU4KJVnvqDk7FyGmX0B+jUH1ofK3UhzUNVN7aO/lbrY6UulCNa6sTW0Z+3PlaaEEAZYuuk+gPnwUG3e7Bo7A9stQA5O7YCIwJULdtaHROgZsZWYEJAhtgKDAhIx+3PAmOAAMsQdgAEOA1hB0CA0xB2AAQ4DWEHQIDTEHYABDgNYQdAgNOsG+4PAJb7A4Dl/gBguT8AZKaa/gCgSdn9ASAnZfUHgIIU7Q8AJVCkPwCUSJ7+AFABOv0BoDKy9QeAipnVHwAMMak/AADALPAfRICX99nRASMAAAAASUVORK5CYII=;fontStyle=1" vertex="1" parent="1">
          <mxGeometry x="580" y="160.5" width="39" height="39" as="geometry" />
        </mxCell>
        <mxCell id="DuDixeBLV8APTmDYksAF-5" value="" style="rounded=0;whiteSpace=wrap;html=1;fillColor=#dae8fc;strokeColor=#6c8ebf;fontStyle=1" vertex="1" parent="1">
          <mxGeometry x="550" y="212" width="200" height="70" as="geometry" />
        </mxCell>
        <mxCell id="DuDixeBLV8APTmDYksAF-6" value="AWS Provider" style="rounded=0;whiteSpace=wrap;html=1;fillColor=#f8cecc;strokeColor=#b85450;fontStyle=1" vertex="1" parent="1">
          <mxGeometry x="590" y="232" width="120" height="30" as="geometry" />
        </mxCell>
        <mxCell id="DuDixeBLV8APTmDYksAF-17" style="edgeStyle=orthogonalEdgeStyle;rounded=0;orthogonalLoop=1;jettySize=auto;html=1;entryX=0.008;entryY=0.14;entryDx=0;entryDy=0;entryPerimeter=0;fontStyle=1" edge="1" parent="1" source="DuDixeBLV8APTmDYksAF-3" target="DuDixeBLV8APTmDYksAF-5">
          <mxGeometry relative="1" as="geometry" />
        </mxCell>
        <mxCell id="DuDixeBLV8APTmDYksAF-18" value="configures" style="edgeLabel;html=1;align=center;verticalAlign=middle;resizable=0;points=[];fontStyle=1" vertex="1" connectable="0" parent="DuDixeBLV8APTmDYksAF-17">
          <mxGeometry x="-0.1733" y="2" relative="1" as="geometry">
            <mxPoint x="6" y="-7" as="offset" />
          </mxGeometry>
        </mxCell>
        <mxCell id="DuDixeBLV8APTmDYksAF-19" value="" style="ellipse;shape=cloud;whiteSpace=wrap;html=1;fillColor=#d5e8d4;strokeColor=#82b366;fontStyle=1" vertex="1" parent="1">
          <mxGeometry x="820" y="114" width="260" height="310" as="geometry" />
        </mxCell>
        <mxCell id="DuDixeBLV8APTmDYksAF-10" value="" style="shape=image;verticalLabelPosition=bottom;labelBackgroundColor=default;verticalAlign=top;aspect=fixed;imageAspect=0;image=data:image/png,iVBORw0KGgoAAAANSUhEUgAAAGAAAABgCAYAAADimHc4AAAACXBIWXMAAAsTAAALEwEAmpwYAAAME0lEQVR4nO1cCZCcRRV+CTcolwgigYWd/mfjkumedQWX7HSPCaRIKYUgrFAgh4CiHAYpChGRQACFKjmisPv3bjCCSklEDhG5CuRGKShBiXIYBeXGIAQIIdezXs/sZqb//q89ZM32V/VX7c7fx+v3+p3dMwAeHh4eHh4eHh4eHh4eHh4eHh4eHh4eHh4eHh4eHh4eHhMabSVVKgp5YiDUgkDIhwMunwmEfCUQ8mUm1NPmM6H6AiGPnjp174+kjdfauc9WQanSOvi0tFc/lpcmVq58tHGM9vbqh/KOMbVT7tg4BmOzN0lq397evjErV3uYUAOMyz8yLl9nXK5iQr7DuHqR+FB/d2wgZu4EI0Fhd7lzwOWFjMt/BEJh5oer5YxLnSSIQMi/Wf3WMi6/lpW2QMiTqE/jGEyoZVN5pZh1DMbVXAftP41pPjnglZMDrl7LwQui7zbGVUdWmhoWqOaRZHMxPrqY5wsl+Unn+FzdY7dnQv41M31cPRkz77xMA/T0bMCEWuqg+VK7aYuobu2iNwcf3g3K3SLr2qCtY/rHR8T4RqZy+cJu02buEGGgkGe5+6SrLWmWvfvXLVb+Lssai2W1h5PesprV2G7Hzs7NydSMnBfypMwCaC2rIGagNxiXdzIhf8i4Oi8Q8lwm5A+YkL8NuPxPrBCEvCYigHK3iGl7eBp9hZLaP2m3kZ1OG4MJ9S2H8N60+9JaYxj6XsDVjYYPXH2jwKtHBEJ91Zg1Lq9lXL1kreuU7ALo7N6l0YwwIecXRPUzpLZxfaZ0dW1GkxjColqwqk1Ud7X7BFw9HxWAGkijL+DyokStK1W7UscQ6ra0jUKBAeNqpYPGu8h5p81R6FB7MS77KVixNSsNk4pcnRqUpKK/83SkHexiCo1ntw24vMKxC59NmyPg6sFkmytPS+rf2dm5EUUt0X6VQ5vWUlJzXFaAIjgYz3A5SCbkr+x2BV6d7WIgRV9xY7e0VDcNhFxhadgjzf+rG5LoK4pKt2NXv28z1rVBGJfXw3hHINT3HQt8ym7H2OxNmJBvRwTAq0fEjl1S0hp3aS3mbhrj1STNdQYAXN0eacfloqgAkoU7LhBjhl51tuXyeoeDuzJu7IDLb1ttf+0KGtpK09sSxrg7wtiyOsFBm3atY9ybIJdpIWfmastE9csObVkSNzbj6jdW29Ppc8rILVNxbIIJswOFtS6z59CswefmXUqVbWC8gpUrVQfRa1xtW/le29M7uz1FYo7mk+3kqVCW053mgssfu+YrCDXDQdujrrbEZKezrm2oFymwyFJ2GTUUOqqMlSoHU8nAxNG8cjIrq8MKXO5bLwFMzisAQsDlQw6bfCRYaOXVaVab5YNxO8XilmY8bfc37YSa53Cs34UY0LsYLRg0gSsowCCzSxkzjDZYqTqFnKqdWDh3hVDLmJD3BULelEsAJXVmVADRHUyCtwRwz7p3qsM2K6RdkTGEvN+eqzitwhNDVi7vTFt7ff3vB0LeWizJ40bDT0xivPp1U8fIMHmGZ01SpTWILubvdrtAyKstM3De0Mueng0ok7UE9IXG/pzP2qLGpOR5bFCVlbLb/AVJFQ67IkrZ7ygxPlUABFfFddeOGS3QAGJW43syfY3vafc1M1de3Pie2jtMyGWQEUVROYAJ9UROQbxV5PKQrHPUF1r5ZqyaGUbJXjoboHjdRApcnsa4PJ8J9QuK9wMuV+cWgHDUXMryqHXMnbmTZaJWsz333DLJlDGhft/0nssL7TnIKedijhmn8mkSXI4y/ZrMQqAaB9lyx05ZQbYtS2miraP6qdwCKKtZUWGrhYPvC0J90Xr/WIQxJams/iupmjk0B1d/sAS0tFqtbpiJMXF0G99jipJ/StYE+WaW+pHbIaZkp26i8gmgvb19Y1JXW9viTCL9n6VMMbjDySlGzjfiD1+GhUDIPet+ylkqb/JZCYM8HFMgy1yUyxuGDiIQ6pd2v8EqKu34psWUqz3gQDTKkWeZz3llvwhDSpWDYQwQlNVnnVVUrh5P7cy4/Lej409yEcDVkcMSAHf1k0e3tU3/sO1X4s6Qo3UoeWt97Etsk0rjwhjBfY4gVyT3olDOoT40WL7J1YBLBdOyxmJndTub0ST8iH9IKFnT7rNtrzl+tE616BAJxhCkXQ5LsjrpTKW2AK6WOzpem3ViilbcTlwhFc1SCefqAcsPPBcIeU6WMsPQ+a1V2iiWKntHyx3yeBhD1E/ILEsiX0jt6LitQMS+knZdY8jROTLNhufAYR4VPmtpxTGJY3D1ePNuV3dZY66lc28YQzAub3FYknSto1Kwk3lcXpTcr1pOC8UoT0glvFxpTxrDmLKUqyeMqx+l0NGUH8SuiavFlHjRyRiZxyx9TMHQnJc75m7Ia2JR5HJmAvHX0Xu65UB1FqqhBKL6FarJN/kOsuOOEgaFgUmnXclauE4bIQWU9CQKsaTOTBuj7g8btW4lE+peOnRnXB5ElwqKXO7W3t61Ldt9RoHCXcblGXS1xr2B1eIsVqTGAK5uT9uFsbuLq5WUNDGuzo5h4Dmp8wt5WdImGOm1moLo3j0DGybHZPT5eSLkO3QNBrKCdnfu23CDE4nKAYYJFDpahyR1LUi9/VasOU33HCU1J8saYrUow6F/XEAwPOarZZQXQV7UShJUWs44GZd32LbZmLPBXcTVa5kTnx5za22JS7tc11uczBPy4mGbnzqMeeHq8rhDmfRH3pTF5CZhUqEsP09HcHaZwBTDhFpCJVe6/5J0iYoONegibZ6Jd+2Y0UIFP4qKzFNSc7Lc9xkE1YCodjXU3zyVL1F9H3KidjWxcigT8ipzETneNK0xgQhXl1AwAaMJKlqR8w061CdMCJeWUKzHmNLVtZkJQMwNDfk5c8xZ7hbj/rDew8PDw8PDw2NMgFfAzqihBzVcgBpuQA33ooY/Ywh/wRAeRQ13owaNGk5CDYWxoWKCARfC1qhhDmp4CENYixow01NrOw8whLswhJtQg/O7XB5u4FzYEDWcgBpez8z06PMqCeDa+j9rUMM12AutMXN6NABDuC1hdy9DDW+ghjdTBLAcUMNGqKGvofP7qGE+Xgm5SgcTDRjCKajhdNRwGGqoYB8EqGE70oymdvNhExwAjiF8DzWssgS1rrRedwyrLCleTI7lg1jg+ggM4WeWAB5pbtAHs+qq06gmK1HDItSQvZ7t4UQ9Omrk7YJoo15oQw1PxXjtWzGE2bgIJmwhLg3YB+2o4UJjPRZC03X1JlNPTx84v0RCDTfHEK6IDatC+BeGcD4OAEulaAIAiV/9cDRqeMDi1Xesdvdb75NzAeyHfVHDC4mxbAj31SefUKVYXAQboIZ9UMOAM9qpBTPTh9ovhE0xhPdi7X/sRL2wjQlP02Na8hV3YAgnrq+OGyn274eZxpSE8FrCxnzCzqvq/rWxzan5JtdwEIbwXI4s7zHUcDb2QTcugtSfDhivwAXQghqOxxCuRw1vpW7CEM51rbdeglgXYfZC/i/5GTXScEYGQiIJR70ucp4xawtgzO5kjgSIMKnuRI/DEBaihmdyrPEx7IWOWM1p1JgQLhoZoQOwA4YQYgircwpikIDVpkClTXh7ttEuir6sJGbMHaeGPVDDMajhUgzhTgxh6TDWs8QkY3NrX1B0ztVofmiOAdhhdBbRC9MwhOuGLQgdeVaghsXGl2i4ysTNIZyM/XAghrAX9kOZSiWm6ki+6WrYYoiWuTDZfEZPP0wx2SfZ6xAOMX6pFoP/3BTNNLw0YlpDeMUkrxnMa30ttX59EPn252gIotWULzS8PUqCwHH7hPC02RSXQ6afR8P5sCVqeLfef2x/5qA+GZVm/7meMX2tMVFU68+ZhBoHXhvjwUaNHVPUC3wHmMihFg/j/+mzGEOYO5KEE0O40pT850PTFwr/Z8AB2JZSbgzh5qZEZPw+z5gsX0MJ1jeQCqKG/Y2/COHJccBsel42zpk2yUQ7C8Fe2B77YT+TH2i4PbHsMRoPhYC1E8BLUMNRFPN/0DwYd0ANW2E/dGE/HF5P+npRw42m5kRaE8KL9ZL5G8a/UFZZi9+XNBx+31LPPCnHOApD2Bs1uH59xcPDw8PDw8PDw8PDw8PDw8PDw8PDw8PDA8Ya/wXC08WgXWClZgAAAABJRU5ErkJggg==;fontStyle=1" vertex="1" parent="1">
          <mxGeometry x="910" y="100" width="50" height="50" as="geometry" />
        </mxCell>
        <mxCell id="DuDixeBLV8APTmDYksAF-23" style="edgeStyle=orthogonalEdgeStyle;rounded=0;orthogonalLoop=1;jettySize=auto;html=1;fontStyle=1" edge="1" parent="1" source="DuDixeBLV8APTmDYksAF-20" target="DuDixeBLV8APTmDYksAF-22">
          <mxGeometry relative="1" as="geometry" />
        </mxCell>
        <mxCell id="DuDixeBLV8APTmDYksAF-24" value="Provisions" style="edgeLabel;html=1;align=center;verticalAlign=middle;resizable=0;points=[];labelBackgroundColor=none;fontStyle=1" vertex="1" connectable="0" parent="DuDixeBLV8APTmDYksAF-23">
          <mxGeometry x="-0.0209" y="7" relative="1" as="geometry">
            <mxPoint x="23" as="offset" />
          </mxGeometry>
        </mxCell>
        <mxCell id="DuDixeBLV8APTmDYksAF-20" value="EC2 API" style="rounded=0;whiteSpace=wrap;html=1;fillColor=#f8cecc;strokeColor=#b85450;fontStyle=1" vertex="1" parent="1">
          <mxGeometry x="893" y="205.5" width="120" height="30" as="geometry" />
        </mxCell>
        <mxCell id="DuDixeBLV8APTmDYksAF-21" style="edgeStyle=orthogonalEdgeStyle;rounded=0;orthogonalLoop=1;jettySize=auto;html=1;entryX=0;entryY=0.5;entryDx=0;entryDy=0;exitX=0.999;exitY=0.112;exitDx=0;exitDy=0;exitPerimeter=0;fontStyle=1" edge="1" parent="1" source="DuDixeBLV8APTmDYksAF-5" target="DuDixeBLV8APTmDYksAF-20">
          <mxGeometry relative="1" as="geometry" />
        </mxCell>
        <mxCell id="DuDixeBLV8APTmDYksAF-26" value="&lt;b&gt;API calls&lt;/b&gt;" style="edgeLabel;html=1;align=center;verticalAlign=middle;resizable=0;points=[];" vertex="1" connectable="0" parent="DuDixeBLV8APTmDYksAF-21">
          <mxGeometry x="-0.3239" y="3" relative="1" as="geometry">
            <mxPoint y="-5" as="offset" />
          </mxGeometry>
        </mxCell>
        <mxCell id="DuDixeBLV8APTmDYksAF-22" value="EC2 instance" style="sketch=0;points=[[0,0,0],[0.25,0,0],[0.5,0,0],[0.75,0,0],[1,0,0],[0,1,0],[0.25,1,0],[0.5,1,0],[0.75,1,0],[1,1,0],[0,0.25,0],[0,0.5,0],[0,0.75,0],[1,0.25,0],[1,0.5,0],[1,0.75,0]];outlineConnect=0;fontColor=#232F3E;fillColor=#ED7100;strokeColor=#ffffff;dashed=0;verticalLabelPosition=bottom;verticalAlign=top;align=center;html=1;fontSize=12;fontStyle=1;aspect=fixed;shape=mxgraph.aws4.resourceIcon;resIcon=mxgraph.aws4.ec2;" vertex="1" parent="1">
          <mxGeometry x="923" y="290" width="60" height="60" as="geometry" />
        </mxCell>
        <mxCell id="DuDixeBLV8APTmDYksAF-28" style="edgeStyle=orthogonalEdgeStyle;rounded=0;orthogonalLoop=1;jettySize=auto;html=1;" edge="1" parent="1" source="DuDixeBLV8APTmDYksAF-27" target="DuDixeBLV8APTmDYksAF-3">
          <mxGeometry relative="1" as="geometry" />
        </mxCell>
        <mxCell id="DuDixeBLV8APTmDYksAF-29" value="&lt;b&gt;Writes&lt;/b&gt;" style="edgeLabel;html=1;align=center;verticalAlign=middle;resizable=0;points=[];" vertex="1" connectable="0" parent="DuDixeBLV8APTmDYksAF-28">
          <mxGeometry x="-0.1354" y="3" relative="1" as="geometry">
            <mxPoint y="-6" as="offset" />
          </mxGeometry>
        </mxCell>
        <mxCell id="DuDixeBLV8APTmDYksAF-27" value="&lt;b&gt;User&lt;/b&gt;" style="sketch=0;outlineConnect=0;fontColor=#232F3E;gradientColor=none;fillColor=#232F3D;strokeColor=none;dashed=0;verticalLabelPosition=bottom;verticalAlign=top;align=center;html=1;fontSize=12;fontStyle=0;aspect=fixed;pointerEvents=1;shape=mxgraph.aws4.user;" vertex="1" parent="1">
          <mxGeometry x="200" y="183" width="77" height="77" as="geometry" />
        </mxCell>
      </root>
    </mxGraphModel>
  </diagram>
</mxfile>
